<mxfile host="app.diagrams.net" modified="2023-09-17T18:20:00.925Z" agent="Mozilla/5.0 (X11; Linux x86_64; rv:109.0) Gecko/20100101 Firefox/117.0" version="21.7.5" etag="3uFTdETWa9KX2vrtrzPD" type="github">
  <diagram name="Page-1" id="F1S7DHb2UXTDWaBEKvWv">
    <mxGraphModel>
      <root>
        <mxCell id="0" />
        <mxCell id="1" parent="0" />
      </root>
    </mxGraphModel>
  </diagram>
</mxfile>
